<?xml version="1.0" encoding="UTF-8" standalone="no"?>
<!-- Created with Inkscape (http://www.inkscape.org/) -->

<svg
   width="210mm"
   height="297mm"
   viewBox="0 0 210 297"
   version="1.1"
   id="svg1"
   inkscape:version="1.3.2 (091e20ef0f, 2023-11-25, custom)"
   sodipodi:docname="image.svg"
   xmlns:inkscape="http://www.inkscape.org/namespaces/inkscape"
   xmlns:sodipodi="http://sodipodi.sourceforge.net/DTD/sodipodi-0.dtd"
   xmlns="http://www.w3.org/2000/svg"
   xmlns:svg="http://www.w3.org/2000/svg">
  <sodipodi:namedview
     id="namedview1"
     pagecolor="#ffffff"
     bordercolor="#000000"
     borderopacity="0.25"
     inkscape:showpageshadow="2"
     inkscape:pageopacity="0.0"
     inkscape:pagecheckerboard="0"
     inkscape:deskcolor="#d1d1d1"
     inkscape:document-units="mm"
     inkscape:zoom="181.01934"
     inkscape:cx="322.29706"
     inkscape:cy="551.83055"
     inkscape:window-width="1280"
     inkscape:window-height="666"
     inkscape:window-x="422"
     inkscape:window-y="225"
     inkscape:window-maximized="0"
     inkscape:current-layer="layer1" />
  <defs
     id="defs1" />
  <g
     inkscape:label="Warstwa 1"
     inkscape:groupmode="layer"
     id="layer1">
    <path
       style="display:inline;fill:#ff0000;stroke-width:0"
       d="m 60.060415,69.585417 c 0,0 -26.689773,56.319283 -9.260416,74.083333 14.099262,14.37001 60.060411,-6.35 60.060411,-6.35 0,0 -9.27377,-37.28378 3.96875,-41.539583 23.50674,-7.55445 48.68333,55.827083 48.68333,55.827083 0,0 21.61472,-42.80125 12.43542,-61.647913 C 165.361,68.221621 111.12499,57.414583 111.12499,57.414583 Z"
       id="path4"
       sodipodi:nodetypes="cacscscc"
       sodipodi:insensitive="true" />
    <path
       id="path3"
       style="fill:#0000ff;stroke-width:0"
       d="M 135.31784 96.626143 L 129.99155 99.44716 C 143.37214 109.22029 155.13645 132.80179 160.42535 144.52813 L 168.24606 141.10302 C 170.85718 134.80733 173.97264 126.3867 176.01871 117.85379 L 135.31784 96.626143 z M 107.7495 111.2268 L 59.382422 136.84281 L 84.989644 146.14508 C 98.707086 142.77562 110.86042 137.31875 110.86042 137.31875 C 110.86042 137.31875 107.33572 123.10527 107.7495 111.2268 z " />
  </g>
</svg>
